<svg width="572" height="324" viewBox="0 0 572 324" fill="none" xmlns="http://www.w3.org/2000/svg">
<g id="altempty 1">
<rect width="572" height="324" fill="white"/>
<g id="person">
<path id="Vector" d="M212.014 199.63L93.6048 218.793C90.1829 219.344 86.6163 218.83 83.6874 217.364C80.7584 215.898 78.7064 213.6 77.9814 210.974L57.6627 136.961C56.9454 134.334 57.6148 131.595 59.524 129.346C61.4331 127.097 64.4261 125.522 67.8464 124.965L186.255 105.802C189.677 105.252 193.244 105.765 196.173 107.231C199.102 108.697 201.154 110.995 201.878 113.621L222.197 187.635C222.915 190.262 222.245 193 220.336 195.249C218.427 197.498 215.434 199.074 212.014 199.63V199.63ZM68.1664 126.131C65.1485 126.622 62.5076 128.012 60.8231 129.997C59.1385 131.981 58.5479 134.397 59.1807 136.715L79.4995 210.729C80.1392 213.046 81.9498 215.073 84.5342 216.367C87.1185 217.66 90.2655 218.114 93.2848 217.628L211.694 198.465C214.711 197.974 217.352 196.583 219.037 194.599C220.721 192.615 221.312 190.199 220.679 187.88L200.36 113.867C199.721 111.55 197.91 109.522 195.326 108.229C192.741 106.935 189.594 106.482 186.575 106.968L68.1664 126.131Z" fill="#37A037"/>
<path id="Path 411" d="M178.898 130.207L119.139 139.878C118.616 139.971 118.066 139.908 117.601 139.702C117.136 139.496 116.79 139.163 116.634 138.768C116.562 138.563 116.546 138.348 116.586 138.137C116.626 137.927 116.721 137.725 116.866 137.543C117.011 137.362 117.203 137.205 117.429 137.083C117.656 136.96 117.913 136.874 118.184 136.83L179.015 126.985C181.391 128.013 180.64 129.925 178.897 130.207L178.898 130.207Z" fill="#CCCCCC"/>
<path id="Path 412" d="M181.108 138.255L121.348 147.926C120.825 148.019 120.276 147.957 119.811 147.751C119.346 147.545 119 147.211 118.843 146.817C118.772 146.611 118.755 146.396 118.795 146.186C118.835 145.975 118.931 145.773 119.076 145.592C119.221 145.41 119.412 145.253 119.639 145.131C119.866 145.008 120.122 144.922 120.394 144.878L181.225 135.034C183.6 136.061 182.849 137.973 181.107 138.255L181.108 138.255Z" fill="#CCCCCC"/>
<path id="Path 413" d="M109.688 154.599L91.4496 157.551C90.854 157.647 90.2332 157.557 89.7234 157.302C89.2135 157.047 88.8564 156.647 88.7302 156.19L84.1937 139.665C84.0688 139.208 84.1853 138.731 84.5176 138.34C84.8499 137.948 85.3709 137.674 85.9663 137.577L104.204 134.626C104.8 134.53 105.421 134.619 105.93 134.874C106.44 135.13 106.797 135.53 106.924 135.987L111.46 152.511C111.585 152.969 111.469 153.445 111.136 153.837C110.804 154.228 110.283 154.502 109.688 154.599V154.599Z" fill="#CCCCCC"/>
<path id="Path 414" d="M185.458 154.762L94.2539 169.522C93.731 169.615 93.1814 169.552 92.7164 169.346C92.2514 169.14 91.9056 168.807 91.7489 168.412C91.6773 168.207 91.6609 167.992 91.7009 167.781C91.7408 167.571 91.8363 167.369 91.9813 167.187C92.1264 167.006 92.3181 166.849 92.5447 166.727C92.7713 166.604 93.028 166.518 93.2992 166.474L185.576 151.54C187.951 152.568 187.2 154.48 185.458 154.762V154.762Z" fill="#CCCCCC"/>
<path id="Path 415" d="M187.668 162.812L96.464 177.573C95.9411 177.666 95.3916 177.603 94.9265 177.397C94.4615 177.191 94.1157 176.857 93.959 176.463C93.8874 176.257 93.871 176.043 93.911 175.832C93.9509 175.621 94.0463 175.419 94.1914 175.238C94.3365 175.057 94.5282 174.9 94.7548 174.777C94.9813 174.655 95.2381 174.569 95.5093 174.525L187.786 159.591C190.161 160.619 189.41 162.53 187.668 162.812V162.812Z" fill="#CCCCCC"/>
<path id="Path 416" d="M189.876 170.858L98.6727 185.618C98.1497 185.711 97.6002 185.648 97.1352 185.442C96.6702 185.236 96.3244 184.902 96.1677 184.508C96.096 184.303 96.0797 184.088 96.1196 183.877C96.1596 183.667 96.255 183.465 96.4001 183.283C96.5451 183.102 96.7368 182.945 96.9634 182.822C97.19 182.7 97.4467 182.614 97.718 182.57L189.994 167.636C192.37 168.664 191.619 170.576 189.876 170.858H189.876Z" fill="#CCCCCC"/>
<path id="Path 417" d="M192.086 178.908L100.883 193.668C100.36 193.761 99.8102 193.698 99.3452 193.492C98.8801 193.286 98.5343 192.952 98.3776 192.558C98.306 192.353 98.2896 192.138 98.3296 191.927C98.3695 191.717 98.4649 191.515 98.61 191.333C98.7551 191.152 98.9468 190.995 99.1734 190.872C99.3999 190.75 99.6567 190.664 99.928 190.62L192.204 175.686C194.58 176.714 193.829 178.626 192.086 178.908V178.908Z" fill="#CCCCCC"/>
<path id="Path 418" d="M194.295 186.953L103.091 201.714C102.569 201.807 102.019 201.744 101.554 201.538C101.089 201.332 100.743 200.998 100.586 200.604C100.515 200.398 100.498 200.184 100.538 199.973C100.578 199.763 100.674 199.56 100.819 199.379C100.964 199.198 101.156 199.041 101.382 198.918C101.609 198.796 101.866 198.71 102.137 198.666L194.413 183.732C196.788 184.76 196.038 186.671 194.295 186.953V186.953Z" fill="#CCCCCC"/>
<path id="Vector_2" d="M208.843 150.106C208.636 150.395 208.459 150.696 208.313 151.006L170.976 158.12L164.48 152.96L153.058 159.469L163.401 169.461C164.236 170.268 165.39 170.845 166.69 171.106C167.989 171.367 169.363 171.297 170.606 170.907L211.121 158.195C212.453 158.948 214.051 159.372 215.704 159.41C217.357 159.448 218.986 159.099 220.374 158.408C221.762 157.718 222.843 156.72 223.474 155.547C224.106 154.373 224.256 153.08 223.907 151.839C223.558 150.598 222.724 149.469 221.518 148.6C220.312 147.732 218.79 147.166 217.155 146.978C215.52 146.789 213.849 146.988 212.364 147.547C210.879 148.106 209.651 148.998 208.843 150.106L208.843 150.106Z" fill="#FFB8B8"/>
<path id="Vector_3" d="M81.3969 213.413C82.5609 213.137 83.6319 212.668 84.5345 212.04C85.4372 211.412 86.1494 210.639 86.6211 209.777C87.0928 208.914 87.3125 207.983 87.2647 207.048C87.217 206.114 86.9029 205.198 86.3445 204.367L112.039 149.533L94.1951 147.105L74.549 201.769C72.7922 202.581 71.4847 203.861 70.8742 205.364C70.2637 206.868 70.3928 208.491 71.2369 209.926C72.0809 211.361 73.5814 212.509 75.454 213.152C77.3265 213.794 79.4411 213.887 81.3969 213.413V213.413Z" fill="#FFB8B8"/>
<path id="Vector_4" d="M108.776 159.267L91.1577 154.075C90.6564 153.927 90.2025 153.698 89.8269 153.404C89.4512 153.109 89.1627 152.756 88.9808 152.368C88.799 151.98 88.7283 151.567 88.7733 151.156C88.8184 150.745 88.9782 150.347 89.2419 149.987L98.4845 137.405C99.4841 135.441 101.457 133.861 103.971 133.012C106.485 132.163 109.335 132.113 111.896 132.875C114.458 133.636 116.521 135.146 117.635 137.074C118.749 139.001 118.822 141.189 117.838 143.158L113.762 157.213C113.645 157.615 113.416 157.993 113.092 158.322C112.767 158.65 112.355 158.921 111.881 159.116C111.408 159.311 110.886 159.425 110.35 159.451C109.814 159.477 109.277 159.414 108.776 159.267V159.267Z" fill="#348586"/>
<path id="Vector_5" d="M148.543 316.362H158.052L162.577 288.197L148.541 288.198L148.543 316.362Z" fill="#FFB8B8"/>
<path id="Vector_6" d="M146.117 313.978L164.845 313.977H164.846C166.414 313.977 167.966 314.214 169.414 314.675C170.862 315.135 172.178 315.81 173.286 316.661C174.394 317.512 175.273 318.522 175.873 319.634C176.473 320.746 176.782 321.938 176.782 323.141V323.439L146.117 323.44L146.117 313.978Z" fill="#2F2E41"/>
<path id="Vector_7" d="M95.0189 316.362H104.528L109.053 288.197L95.0174 288.198L95.0189 316.362Z" fill="#FFB8B8"/>
<path id="Vector_8" d="M92.5929 313.978L111.321 313.977H111.322C112.89 313.977 114.442 314.214 115.89 314.675C117.338 315.135 118.654 315.81 119.762 316.661C120.87 317.512 121.749 318.522 122.349 319.634C122.949 320.746 123.258 321.938 123.258 323.141V323.439L92.5935 323.44L92.5929 313.978Z" fill="#2F2E41"/>
<path id="Vector_9" d="M104.989 305.026H92.9537C92.4814 305.026 92.0139 304.952 91.5797 304.81C91.1455 304.667 90.7536 304.458 90.4276 304.195C90.1016 303.933 89.8484 303.622 89.6833 303.283C89.5182 302.943 89.4446 302.581 89.467 302.218L95.1835 207.918L95.5437 207.91L153.659 206.747L165.031 301.102C165.075 301.455 165.027 301.812 164.889 302.152C164.752 302.491 164.528 302.806 164.23 303.078C163.933 303.35 163.568 303.574 163.157 303.737C162.745 303.9 162.296 303.998 161.835 304.027L148.317 304.857C147.468 304.909 146.623 304.72 145.942 304.327C145.261 303.935 144.791 303.364 144.619 302.723L127.328 235.555C127.281 235.351 127.14 235.167 126.931 235.036C126.722 234.905 126.459 234.835 126.189 234.841H126.184C125.913 234.836 125.65 234.907 125.441 235.039C125.232 235.171 125.092 235.357 125.047 235.562L108.414 302.864C108.256 303.472 107.829 304.02 107.204 304.415C106.58 304.809 105.797 305.025 104.989 305.026V305.026Z" fill="#2F2E41"/>
<path id="Vector_10" d="M127.034 123.814C137.556 123.814 146.086 117.264 146.086 109.185C146.086 101.106 137.556 94.5571 127.034 94.5571C116.512 94.5571 107.982 101.106 107.982 109.185C107.982 117.264 116.512 123.814 127.034 123.814Z" fill="#FFB8B8"/>
<path id="Vector_11" d="M120.646 218.969C111.565 218.969 102.238 217.136 94.5057 211.718C94.0942 211.431 93.7766 211.074 93.5785 210.676C93.3804 210.278 93.3076 209.849 93.3658 209.425C94.1934 203.716 98.2079 174.237 95.9471 154.545C95.5059 150.867 96.1841 147.161 97.9282 143.718C99.6723 140.276 102.434 137.192 105.997 134.709C109.497 132.233 113.699 130.414 118.271 129.398C122.842 128.381 127.66 128.195 132.342 128.852H132.342C132.579 128.885 132.816 128.919 133.054 128.954C148.307 131.221 158.905 142.059 157.706 154.166C155.956 171.831 154.387 195.726 156.85 209.239C156.952 209.792 156.827 210.355 156.491 210.85C156.155 211.345 155.626 211.748 154.977 212C149.373 214.174 135.331 218.969 120.646 218.969Z" fill="#348586"/>
<path id="Vector_12" d="M145.506 160.319C145.059 160.091 144.682 159.791 144.399 159.44C144.117 159.09 143.936 158.696 143.87 158.287L141.549 143.999C140.812 141.967 141.155 139.794 142.502 137.956C143.849 136.117 146.09 134.764 148.734 134.193C151.379 133.621 154.21 133.878 156.608 134.907C159.006 135.937 160.775 137.654 161.527 139.682L169.172 152.881C169.39 153.258 169.5 153.666 169.494 154.079C169.488 154.491 169.367 154.897 169.138 155.27C168.909 155.643 168.578 155.974 168.168 156.24C167.757 156.506 167.277 156.7 166.76 156.811L148.579 160.695C148.062 160.806 147.52 160.83 146.989 160.765C146.459 160.7 145.953 160.548 145.506 160.319V160.319Z" fill="#348586"/>
<path id="Vector_13" d="M120.383 123.607C118.58 123.633 116.788 123.384 115.11 122.875C114.372 122.656 113.606 122.477 112.87 122.258C106.364 120.328 102.079 115.009 101.925 109.655C101.772 104.302 105.382 99.1058 110.744 95.6814C116.106 92.2571 123.051 90.499 130.005 90.0924C137.496 89.6545 145.93 91.113 150.116 95.9028C151.23 97.1777 152.01 98.7246 151.349 100.264C151.152 100.728 150.798 101.145 150.325 101.472C148.456 102.749 146.592 101.789 144.687 101.704C142.068 101.587 139.715 103.215 138.87 105.122C138.024 107.029 138.396 109.128 139.079 111.073C139.599 112.244 139.927 113.459 140.055 114.692C140.11 115.31 139.959 115.929 139.615 116.489C139.271 117.05 138.747 117.534 138.092 117.895C136.455 118.655 134.306 118.215 132.668 117.457C131.03 116.699 129.615 115.644 127.846 115.086C126.077 114.528 123.701 114.652 122.671 115.889C122.344 116.339 122.122 116.83 122.017 117.34C121.094 120.568 121.306 120.378 120.383 123.607V123.607Z" fill="#2F2E41"/>
</g>
<g id="bluecard">
<path id="Vector_14" d="M384.278 103.632H263.268C259.772 103.629 256.42 102.562 253.947 100.663C251.475 98.7653 250.085 96.1917 250.081 93.5074V17.8676C250.085 15.1833 251.475 12.6097 253.947 10.7115C256.42 8.81337 259.772 7.74567 263.268 7.74265H384.278C387.775 7.74567 391.126 8.81337 393.599 10.7115C396.071 12.6097 397.461 15.1833 397.465 17.8676V93.5074C397.461 96.1917 396.071 98.7653 393.599 100.663C391.126 102.562 387.775 103.629 384.278 103.632V103.632ZM263.268 8.93382C260.183 8.9365 257.225 9.8786 255.044 11.5534C252.863 13.2283 251.636 15.4991 251.632 17.8676V93.5074C251.636 95.8759 252.863 98.1467 255.044 99.8216C257.225 101.496 260.183 102.438 263.268 102.441H384.278C387.363 102.438 390.321 101.496 392.502 99.8216C394.683 98.1467 395.911 95.8759 395.914 93.5074V17.8676C395.911 15.4991 394.683 13.2283 392.502 11.5534C390.321 9.8786 387.363 8.9365 384.278 8.93382H263.268Z" fill="#31AAD7"/>
<path id="Path 411_2" d="M370.524 30.4572H309.451C308.915 30.4656 308.394 30.3171 307.994 30.0419C307.594 29.7667 307.346 29.3853 307.298 28.9747C307.283 28.7622 307.325 28.5496 307.421 28.3498C307.516 28.1501 307.664 27.9674 307.855 27.8129C308.045 27.6584 308.275 27.5354 308.53 27.4513C308.784 27.3672 309.059 27.3238 309.336 27.3238H371.504C373.552 28.7056 372.304 30.4572 370.523 30.4572L370.524 30.4572Z" fill="#3F3D56"/>
<path id="Path 412_2" d="M370.524 38.6823H309.451C308.915 38.6906 308.394 38.5422 307.994 38.267C307.594 37.9918 307.346 37.6104 307.298 37.1998C307.283 36.9873 307.325 36.7747 307.421 36.5749C307.516 36.3751 307.664 36.1925 307.855 36.038C308.045 35.8835 308.275 35.7604 308.53 35.6763C308.784 35.5923 309.059 35.5489 309.336 35.5489H371.504C373.552 36.9307 372.304 38.6823 370.523 38.6823L370.524 38.6823Z" fill="#3F3D56"/>
<path id="Path 413_2" d="M296.249 43.3654H277.61C277.002 43.3649 276.418 43.1791 275.988 42.8487C275.558 42.5183 275.315 42.0703 275.315 41.603V24.7151C275.315 24.2479 275.558 23.7999 275.988 23.4695C276.418 23.1391 277.002 22.9532 277.61 22.9528H296.249C296.857 22.9534 297.441 23.1393 297.871 23.4697C298.301 23.8 298.543 24.2479 298.544 24.7151V41.603C298.544 42.0703 298.302 42.5183 297.871 42.8487C297.441 43.1791 296.857 43.3649 296.249 43.3654V43.3654Z" fill="#31AAD7"/>
<path id="Path 414_2" d="M370.346 55.5231H277.138C276.602 55.5315 276.081 55.3831 275.681 55.1079C275.282 54.8327 275.033 54.4513 274.985 54.0407C274.971 53.8282 275.012 53.6155 275.108 53.4158C275.204 53.216 275.351 53.0333 275.542 52.8788C275.733 52.7243 275.962 52.6013 276.217 52.5172C276.472 52.4331 276.746 52.3898 277.023 52.3898H371.327C373.375 53.7715 372.127 55.5232 370.346 55.5232V55.5231Z" fill="#CCCCCC"/>
<path id="Path 415_2" d="M370.346 63.7506H277.138C276.602 63.7589 276.081 63.6105 275.681 63.3353C275.282 63.0601 275.033 62.6787 274.985 62.2681C274.971 62.0556 275.012 61.843 275.108 61.6432C275.204 61.4434 275.351 61.2608 275.542 61.1063C275.733 60.9518 275.962 60.8287 276.217 60.7446C276.472 60.6606 276.746 60.6172 277.023 60.6172H371.327C373.375 61.999 372.127 63.7506 370.346 63.7506V63.7506Z" fill="#CCCCCC"/>
<path id="Path 416_2" d="M370.346 71.9727H277.138C276.602 71.981 276.081 71.8326 275.681 71.5574C275.282 71.2822 275.033 70.9008 274.985 70.4902C274.971 70.2777 275.012 70.0651 275.108 69.8653C275.204 69.6656 275.351 69.4828 275.542 69.3284C275.733 69.1739 275.962 69.0508 276.217 68.9667C276.472 68.8827 276.746 68.8393 277.023 68.8393H371.327C373.375 70.221 372.127 71.9727 370.346 71.9727V71.9727Z" fill="#CCCCCC"/>
<path id="Path 417_2" d="M370.346 80.1995H277.138C276.602 80.2079 276.081 80.0595 275.681 79.7843C275.282 79.5091 275.033 79.1277 274.985 78.7171C274.971 78.5046 275.012 78.2919 275.108 78.0922C275.204 77.8924 275.351 77.7097 275.542 77.5552C275.733 77.4008 275.962 77.2777 276.217 77.1936C276.472 77.1095 276.746 77.0662 277.023 77.0662H371.327C373.375 78.4479 372.127 80.1996 370.346 80.1996V80.1995Z" fill="#CCCCCC"/>
<path id="Path 418_2" d="M370.346 88.4222H277.138C276.602 88.4306 276.081 88.2822 275.681 88.007C275.282 87.7318 275.033 87.3504 274.985 86.9398C274.971 86.7272 275.012 86.5146 275.108 86.3148C275.204 86.1151 275.351 85.9324 275.542 85.7779C275.733 85.6234 275.962 85.5004 276.217 85.4163C276.472 85.3322 276.746 85.2888 277.023 85.2888H371.327C373.375 86.6706 372.127 88.4222 370.346 88.4222Z" fill="#CCCCCC"/>
<path id="Vector_15" d="M357.904 0C358.933 0.00090324 359.918 0.31494 360.646 0.873216C361.373 1.43149 361.782 2.18842 361.783 2.97794V12.5074C361.782 13.2969 361.373 14.0538 360.646 14.6121C359.918 15.1704 358.933 15.4844 357.904 15.4853H289.642C288.614 15.4844 287.628 15.1704 286.901 14.6121C286.173 14.0538 285.764 13.2969 285.763 12.5074V2.97794C285.764 2.18842 286.173 1.43149 286.901 0.873216C287.628 0.31494 288.614 0.00090324 289.642 0" fill="#348586"/>
</g>
<g id="purplecard">
<path id="Vector_16" d="M558.813 197.14H437.802C434.306 197.137 430.954 196.069 428.482 194.171C426.01 192.273 424.619 189.699 424.615 187.015V111.375C424.619 108.691 426.01 106.117 428.482 104.219C430.954 102.321 434.306 101.253 437.802 101.25H558.813C562.309 101.253 565.661 102.321 568.133 104.219C570.605 106.117 571.996 108.691 572 111.375V187.015C571.996 189.699 570.605 192.273 568.133 194.171C565.661 196.069 562.309 197.137 558.813 197.14ZM437.802 102.441C434.717 102.444 431.76 103.386 429.579 105.061C427.397 106.736 426.17 109.006 426.167 111.375V187.015C426.17 189.383 427.397 191.654 429.579 193.329C431.76 195.004 434.717 195.946 437.802 195.949H558.813C561.898 195.946 564.855 195.004 567.037 193.329C569.218 191.654 570.445 189.383 570.449 187.015V111.375C570.445 109.006 569.218 106.736 567.037 105.061C564.855 103.386 561.898 102.444 558.813 102.441H437.802Z" fill="#5F5F9D"/>
<path id="Path 411_3" d="M545.058 123.965H483.986C483.449 123.973 482.928 123.824 482.529 123.549C482.129 123.274 481.88 122.893 481.833 122.482C481.818 122.27 481.86 122.057 481.955 121.857C482.051 121.657 482.199 121.475 482.389 121.32C482.58 121.166 482.81 121.043 483.064 120.959C483.319 120.875 483.593 120.831 483.871 120.831H546.039C548.087 122.213 546.839 123.965 545.058 123.965H545.058Z" fill="#3F3D56"/>
<path id="Path 412_3" d="M545.058 132.19H483.986C483.449 132.198 482.928 132.05 482.529 131.774C482.129 131.499 481.88 131.118 481.833 130.707C481.818 130.495 481.86 130.282 481.955 130.082C482.051 129.882 482.199 129.7 482.389 129.545C482.58 129.391 482.81 129.268 483.064 129.184C483.319 129.1 483.593 129.056 483.871 129.056H546.039C548.087 130.438 546.839 132.19 545.058 132.19H545.058Z" fill="#3F3D56"/>
<path id="Path 413_3" d="M470.783 136.873H452.145C451.536 136.872 450.953 136.686 450.522 136.356C450.092 136.026 449.85 135.578 449.849 135.11V118.222C449.85 117.755 450.092 117.307 450.522 116.977C450.953 116.646 451.536 116.461 452.145 116.46H470.783C471.392 116.461 471.975 116.647 472.406 116.977C472.836 117.307 473.078 117.755 473.079 118.222V135.11C473.078 135.578 472.836 136.026 472.406 136.356C471.976 136.686 471.392 136.872 470.783 136.873V136.873Z" fill="#5F5F9D"/>
<path id="Path 413_4" d="M544.476 182.733H525.837C525.229 182.733 524.645 182.547 524.215 182.216C523.784 181.886 523.542 181.438 523.542 180.971V171.23C523.542 170.763 523.784 170.315 524.215 169.984C524.645 169.654 525.229 169.468 525.837 169.467H544.476C545.084 169.468 545.668 169.654 546.098 169.984C546.528 170.315 546.77 170.763 546.771 171.23V180.971C546.771 181.438 546.529 181.886 546.098 182.216C545.668 182.547 545.084 182.733 544.476 182.733V182.733Z" fill="#3F3D56"/>
<path id="Path 414_3" d="M544.881 149.03H451.673C451.136 149.039 450.615 148.89 450.216 148.615C449.816 148.34 449.567 147.959 449.52 147.548C449.505 147.336 449.547 147.123 449.642 146.923C449.738 146.723 449.886 146.541 450.076 146.386C450.267 146.232 450.497 146.109 450.751 146.025C451.006 145.94 451.28 145.897 451.558 145.897H545.862C547.91 147.279 546.662 149.031 544.881 149.031V149.03Z" fill="#CCCCCC"/>
<path id="Path 415_3" d="M544.881 157.258H451.673C451.136 157.266 450.615 157.118 450.216 156.843C449.816 156.567 449.567 156.186 449.52 155.775C449.505 155.563 449.547 155.35 449.642 155.151C449.738 154.951 449.886 154.768 450.076 154.614C450.267 154.459 450.497 154.336 450.751 154.252C451.006 154.168 451.28 154.125 451.558 154.125H545.862C547.91 155.506 546.662 157.258 544.881 157.258V157.258Z" fill="#CCCCCC"/>
<path id="Path 416_3" d="M544.881 165.48H451.673C451.136 165.488 450.615 165.34 450.216 165.065C449.816 164.79 449.567 164.408 449.52 163.998C449.505 163.785 449.547 163.572 449.642 163.373C449.738 163.173 449.886 162.99 450.076 162.836C450.267 162.681 450.497 162.558 450.751 162.474C451.006 162.39 451.28 162.347 451.558 162.347H545.862C547.91 163.728 546.662 165.48 544.881 165.48V165.48Z" fill="#CCCCCC"/>
<path id="Path 417_3" d="M496.011 173.707H451.673C451.136 173.715 450.615 173.567 450.216 173.292C449.816 173.016 449.567 172.635 449.52 172.224C449.505 172.012 449.547 171.799 449.642 171.6C449.738 171.4 449.886 171.217 450.076 171.063C450.267 170.908 450.497 170.785 450.751 170.701C451.006 170.617 451.28 170.574 451.558 170.574H496.992C499.04 171.955 497.792 173.707 496.011 173.707V173.707Z" fill="#CCCCCC"/>
<path id="Path 418_3" d="M496.011 181.93H451.673C451.136 181.938 450.615 181.79 450.216 181.514C449.816 181.239 449.567 180.858 449.52 180.447C449.505 180.235 449.547 180.022 449.642 179.822C449.738 179.622 449.886 179.44 450.076 179.285C450.267 179.131 450.497 179.008 450.751 178.924C451.006 178.84 451.28 178.796 451.558 178.796H496.992C499.04 180.178 497.792 181.93 496.011 181.93V181.93Z" fill="#CCCCCC"/>
<path id="Vector_17" d="M532.439 108.993H464.176C463.148 108.992 462.162 108.678 461.435 108.119C460.708 107.561 460.299 106.804 460.298 106.015V96.4853C460.299 95.6958 460.708 94.9389 461.435 94.3806C462.162 93.8223 463.148 93.5083 464.176 93.5074H532.439C533.467 93.5083 534.453 93.8223 535.18 94.3806C535.907 94.9389 536.316 95.6958 536.317 96.4853V106.015C536.316 106.804 535.907 107.561 535.18 108.119C534.453 108.678 533.467 108.992 532.439 108.993Z" fill="#348586"/>
</g>
<g id="baseline">
<path id="Vector_18" d="M570.507 324H1.49347C1.09738 324 0.717507 323.947 0.437427 323.854C0.157346 323.76 0 323.633 0 323.5C0 323.367 0.157346 323.24 0.437427 323.146C0.717507 323.053 1.09738 323 1.49347 323H570.507C570.903 323 571.282 323.053 571.563 323.146C571.843 323.24 572 323.367 572 323.5C572 323.633 571.843 323.76 571.563 323.854C571.282 323.947 570.903 324 570.507 324Z" fill="#3F3D56"/>
</g>
<g id="firstdots">
<path id="Vector_19" d="M75.0606 17.7433C77.8311 17.7433 80.077 16.0189 80.077 13.8917C80.077 11.7645 77.8311 10.0401 75.0606 10.0401C72.2901 10.0401 70.0441 11.7645 70.0441 13.8917C70.0441 16.0189 72.2901 17.7433 75.0606 17.7433Z" fill="#348586"/>
<path id="Vector_20" d="M75.0606 33.0936C77.8311 33.0936 80.077 31.3691 80.077 29.242C80.077 27.1148 77.8311 25.3904 75.0606 25.3904C72.2901 25.3904 70.0441 27.1148 70.0441 29.242C70.0441 31.3691 72.2901 33.0936 75.0606 33.0936Z" fill="#348586"/>
<path id="Vector_21" d="M75.0606 48.4438C77.8311 48.4438 80.077 46.7194 80.077 44.5922C80.077 42.465 77.8311 40.7406 75.0606 40.7406C72.2901 40.7406 70.0441 42.465 70.0441 44.5922C70.0441 46.7194 72.2901 48.4438 75.0606 48.4438Z" fill="#348586"/>
<path id="Vector_22" d="M75.0606 63.7941C77.8311 63.7941 80.077 62.0697 80.077 59.9425C80.077 57.8153 77.8311 56.0909 75.0606 56.0909C72.2901 56.0909 70.0441 57.8153 70.0441 59.9425C70.0441 62.0697 72.2901 63.7941 75.0606 63.7941Z" fill="#348586"/>
<path id="Vector_23" d="M96.0047 17.7433C98.7752 17.7433 101.021 16.0189 101.021 13.8917C101.021 11.7645 98.7752 10.0401 96.0047 10.0401C93.2342 10.0401 90.9883 11.7645 90.9883 13.8917C90.9883 16.0189 93.2342 17.7433 96.0047 17.7433Z" fill="#348586"/>
<path id="Vector_24" d="M96.0047 33.0936C98.7752 33.0936 101.021 31.3691 101.021 29.242C101.021 27.1148 98.7752 25.3904 96.0047 25.3904C93.2342 25.3904 90.9883 27.1148 90.9883 29.242C90.9883 31.3691 93.2342 33.0936 96.0047 33.0936Z" fill="#348586"/>
<path id="Vector_25" d="M96.0047 48.4438C98.7752 48.4438 101.021 46.7194 101.021 44.5922C101.021 42.465 98.7752 40.7406 96.0047 40.7406C93.2342 40.7406 90.9883 42.465 90.9883 44.5922C90.9883 46.7194 93.2342 48.4438 96.0047 48.4438Z" fill="#348586"/>
<path id="Vector_26" d="M96.0047 63.7941C98.7752 63.7941 101.021 62.0697 101.021 59.9425C101.021 57.8153 98.7752 56.0909 96.0047 56.0909C93.2342 56.0909 90.9883 57.8153 90.9883 59.9425C90.9883 62.0697 93.2342 63.7941 96.0047 63.7941Z" fill="#348586"/>
<path id="Vector_27" d="M116.949 17.7433C119.719 17.7433 121.965 16.0189 121.965 13.8917C121.965 11.7645 119.719 10.0401 116.949 10.0401C114.178 10.0401 111.932 11.7645 111.932 13.8917C111.932 16.0189 114.178 17.7433 116.949 17.7433Z" fill="#348586"/>
<path id="Vector_28" d="M116.949 33.0936C119.719 33.0936 121.965 31.3691 121.965 29.242C121.965 27.1148 119.719 25.3904 116.949 25.3904C114.178 25.3904 111.932 27.1148 111.932 29.242C111.932 31.3691 114.178 33.0936 116.949 33.0936Z" fill="#348586"/>
<path id="Vector_29" d="M116.949 48.4438C119.719 48.4438 121.965 46.7194 121.965 44.5922C121.965 42.465 119.719 40.7406 116.949 40.7406C114.178 40.7406 111.932 42.465 111.932 44.5922C111.932 46.7194 114.178 48.4438 116.949 48.4438Z" fill="#348586"/>
<path id="Vector_30" d="M116.949 63.7941C119.719 63.7941 121.965 62.0697 121.965 59.9425C121.965 57.8153 119.719 56.0909 116.949 56.0909C114.178 56.0909 111.932 57.8153 111.932 59.9425C111.932 62.0697 114.178 63.7941 116.949 63.7941Z" fill="#348586"/>
<path id="Vector_31" d="M137.893 17.7433C140.663 17.7433 142.909 16.0189 142.909 13.8917C142.909 11.7645 140.663 10.0401 137.893 10.0401C135.122 10.0401 132.877 11.7645 132.877 13.8917C132.877 16.0189 135.122 17.7433 137.893 17.7433Z" fill="#348586"/>
<path id="Vector_32" d="M137.893 33.0936C140.663 33.0936 142.909 31.3691 142.909 29.242C142.909 27.1148 140.663 25.3904 137.893 25.3904C135.122 25.3904 132.877 27.1148 132.877 29.242C132.877 31.3691 135.122 33.0936 137.893 33.0936Z" fill="#348586"/>
<path id="Vector_33" d="M137.893 48.4438C140.663 48.4438 142.909 46.7194 142.909 44.5922C142.909 42.465 140.663 40.7406 137.893 40.7406C135.122 40.7406 132.877 42.465 132.877 44.5922C132.877 46.7194 135.122 48.4438 137.893 48.4438Z" fill="#348586"/>
<path id="Vector_34" d="M137.893 63.7941C140.663 63.7941 142.909 62.0697 142.909 59.9425C142.909 57.8153 140.663 56.0909 137.893 56.0909C135.122 56.0909 132.877 57.8153 132.877 59.9425C132.877 62.0697 135.122 63.7941 137.893 63.7941Z" fill="#348586"/>
<path id="Vector_35" d="M158.837 17.7433C161.608 17.7433 163.854 16.0189 163.854 13.8917C163.854 11.7645 161.608 10.0401 158.837 10.0401C156.067 10.0401 153.821 11.7645 153.821 13.8917C153.821 16.0189 156.067 17.7433 158.837 17.7433Z" fill="#348586"/>
<path id="Vector_36" d="M158.837 33.0936C161.608 33.0936 163.854 31.3691 163.854 29.242C163.854 27.1148 161.608 25.3904 158.837 25.3904C156.067 25.3904 153.821 27.1148 153.821 29.242C153.821 31.3691 156.067 33.0936 158.837 33.0936Z" fill="#348586"/>
<path id="Vector_37" d="M158.837 48.4438C161.608 48.4438 163.854 46.7194 163.854 44.5922C163.854 42.465 161.608 40.7406 158.837 40.7406C156.067 40.7406 153.821 42.465 153.821 44.5922C153.821 46.7194 156.067 48.4438 158.837 48.4438Z" fill="#348586"/>
<path id="Vector_38" d="M158.837 63.7941C161.608 63.7941 163.854 62.0697 163.854 59.9425C163.854 57.8153 161.608 56.0909 158.837 56.0909C156.067 56.0909 153.821 57.8153 153.821 59.9425C153.821 62.0697 156.067 63.7941 158.837 63.7941Z" fill="#348586"/>
<path id="Vector_39" d="M179.781 17.7433C182.552 17.7433 184.798 16.0189 184.798 13.8917C184.798 11.7645 182.552 10.0401 179.781 10.0401C177.011 10.0401 174.765 11.7645 174.765 13.8917C174.765 16.0189 177.011 17.7433 179.781 17.7433Z" fill="#348586"/>
<path id="Vector_40" d="M179.781 33.0936C182.552 33.0936 184.798 31.3691 184.798 29.242C184.798 27.1148 182.552 25.3904 179.781 25.3904C177.011 25.3904 174.765 27.1148 174.765 29.242C174.765 31.3691 177.011 33.0936 179.781 33.0936Z" fill="#348586"/>
<path id="Vector_41" d="M179.781 48.4438C182.552 48.4438 184.798 46.7194 184.798 44.5922C184.798 42.465 182.552 40.7406 179.781 40.7406C177.011 40.7406 174.765 42.465 174.765 44.5922C174.765 46.7194 177.011 48.4438 179.781 48.4438Z" fill="#348586"/>
<path id="Vector_42" d="M179.781 63.7941C182.552 63.7941 184.798 62.0697 184.798 59.9425C184.798 57.8153 182.552 56.0909 179.781 56.0909C177.011 56.0909 174.765 57.8153 174.765 59.9425C174.765 62.0697 177.011 63.7941 179.781 63.7941Z" fill="#348586"/>
</g>
<g id="seconddots">
<path id="Vector_43" d="M467.016 36.7032C469.787 36.7032 472.033 34.9788 472.033 32.8516C472.033 30.7244 469.787 29 467.016 29C464.246 29 462 30.7244 462 32.8516C462 34.9788 464.246 36.7032 467.016 36.7032Z" fill="#348586"/>
<path id="Vector_44" d="M467.016 52.0535C469.787 52.0535 472.033 50.329 472.033 48.2019C472.033 46.0747 469.787 44.3503 467.016 44.3503C464.246 44.3503 462 46.0747 462 48.2019C462 50.329 464.246 52.0535 467.016 52.0535Z" fill="#348586"/>
<path id="Vector_45" d="M467.016 67.4038C469.787 67.4038 472.033 65.6794 472.033 63.5522C472.033 61.425 469.787 59.7006 467.016 59.7006C464.246 59.7006 462 61.425 462 63.5522C462 65.6794 464.246 67.4038 467.016 67.4038Z" fill="#348586"/>
<path id="Vector_46" d="M487.961 36.7032C490.731 36.7032 492.977 34.9788 492.977 32.8516C492.977 30.7244 490.731 29 487.961 29C485.19 29 482.944 30.7244 482.944 32.8516C482.944 34.9788 485.19 36.7032 487.961 36.7032Z" fill="#348586"/>
<path id="Vector_47" d="M487.961 52.0535C490.731 52.0535 492.977 50.329 492.977 48.2019C492.977 46.0747 490.731 44.3503 487.961 44.3503C485.19 44.3503 482.944 46.0747 482.944 48.2019C482.944 50.329 485.19 52.0535 487.961 52.0535Z" fill="#348586"/>
<path id="Vector_48" d="M487.961 67.4038C490.731 67.4038 492.977 65.6794 492.977 63.5522C492.977 61.425 490.731 59.7006 487.961 59.7006C485.19 59.7006 482.944 61.425 482.944 63.5522C482.944 65.6794 485.19 67.4038 487.961 67.4038Z" fill="#348586"/>
<path id="Vector_49" d="M508.905 36.7032C511.675 36.7032 513.921 34.9788 513.921 32.8516C513.921 30.7244 511.675 29 508.905 29C506.134 29 503.888 30.7244 503.888 32.8516C503.888 34.9788 506.134 36.7032 508.905 36.7032Z" fill="#348586"/>
<path id="Vector_50" d="M508.905 52.0535C511.675 52.0535 513.921 50.329 513.921 48.2019C513.921 46.0747 511.675 44.3503 508.905 44.3503C506.134 44.3503 503.888 46.0747 503.888 48.2019C503.888 50.329 506.134 52.0535 508.905 52.0535Z" fill="#348586"/>
<path id="Vector_51" d="M508.905 67.4038C511.675 67.4038 513.921 65.6794 513.921 63.5522C513.921 61.425 511.675 59.7006 508.905 59.7006C506.134 59.7006 503.888 61.425 503.888 63.5522C503.888 65.6794 506.134 67.4038 508.905 67.4038Z" fill="#348586"/>
<path id="Vector_52" d="M529.849 36.7032C532.619 36.7032 534.865 34.9788 534.865 32.8516C534.865 30.7244 532.619 29 529.849 29C527.078 29 524.832 30.7244 524.832 32.8516C524.832 34.9788 527.078 36.7032 529.849 36.7032Z" fill="#348586"/>
<path id="Vector_53" d="M529.849 52.0535C532.619 52.0535 534.865 50.329 534.865 48.2019C534.865 46.0747 532.619 44.3503 529.849 44.3503C527.078 44.3503 524.832 46.0747 524.832 48.2019C524.832 50.329 527.078 52.0535 529.849 52.0535Z" fill="#348586"/>
<path id="Vector_54" d="M529.849 67.4038C532.619 67.4038 534.865 65.6794 534.865 63.5522C534.865 61.425 532.619 59.7006 529.849 59.7006C527.078 59.7006 524.832 61.425 524.832 63.5522C524.832 65.6794 527.078 67.4038 529.849 67.4038Z" fill="#348586"/>
</g>
<path id="EMPTY" d="M241.56 258.76C241.56 258.92 241.507 259.187 241.4 259.56C241.347 259.88 241.267 260.227 241.16 260.6C241.053 260.973 240.947 261.32 240.84 261.64C240.787 261.96 240.76 262.2 240.76 262.36C238.893 262.52 237.667 262.68 237.08 262.84C236.547 262.947 236.227 263 236.12 263H230.76C229.96 263 229.347 263 228.92 263C228.493 262.947 228.147 262.92 227.88 262.92C227.667 262.92 227.507 262.947 227.4 263C227.293 263 227.133 263.027 226.92 263.08L225.24 264.12L222.76 263C222.707 262.733 222.44 262.44 221.96 262.12C221.533 261.8 221.24 261.427 221.08 261L223.64 257.48C224.707 257.48 225.267 257.507 225.32 257.56C225.427 257.56 225.453 257.533 225.4 257.48C225.4 257.427 225.56 257.373 225.88 257.32C226.2 257.213 226.573 257.133 227 257.08L228.2 256.84C228.573 256.787 230.307 256.867 233.4 257.08C233.453 257.08 233.827 257.213 234.52 257.48C234.787 257.587 235.453 257.56 236.52 257.4C237.64 257.187 238.893 257.08 240.28 257.08L241.56 258.76ZM241.88 280.52C241.773 280.84 241.693 281.213 241.64 281.64C241.64 282.067 241.693 282.36 241.8 282.52C241.693 282.627 241.373 282.76 240.84 282.92C240.307 283.08 239.56 283.347 238.6 283.72C237.587 283.987 236.627 284.04 235.72 283.88C234.813 283.72 233.933 283.747 233.08 283.96C230.467 283.96 227.773 284.36 225 285.16C224.253 285.373 223.613 285.56 223.08 285.72C222.547 285.88 222.093 286.013 221.72 286.12C221.507 286.227 221.293 286.307 221.08 286.36C220.92 286.36 220.76 286.387 220.6 286.44L214.36 286.68C213.88 286.84 213.373 286.893 212.84 286.84C212.307 286.733 211.773 286.627 211.24 286.52C210.707 286.36 210.227 286.2 209.8 286.04C209.373 285.88 209.027 285.8 208.76 285.8C208.493 285.8 208.04 285.827 207.4 285.88C206.76 285.88 206.173 285.88 205.64 285.88C205.107 285.507 204.627 285.133 204.2 284.76C203.773 284.333 203.747 283.613 204.12 282.6C204.227 282.067 204.413 281.533 204.68 281C205 280.413 205.107 279.827 205 279.24C204.947 279.027 204.813 278.68 204.6 278.2C204.44 277.72 204.307 277.213 204.2 276.68C204.147 276.147 204.147 275.613 204.2 275.08C204.307 274.547 204.6 274.093 205.08 273.72C205.507 273.027 205.693 272.387 205.64 271.8C205.587 271.16 205.347 270.493 204.92 269.8C205.24 269.427 205.427 269 205.48 268.52C205.587 267.987 205.613 267.48 205.56 267C205.507 266.52 205.4 266.093 205.24 265.72C205.133 265.347 205.027 265.08 204.92 264.92C205.08 264.173 205.24 263.187 205.4 261.96C205.56 260.68 205.693 259.4 205.8 258.12C205.96 256.787 206.067 255.56 206.12 254.44C206.173 253.32 206.173 252.493 206.12 251.96C206.067 251.267 206.12 250.547 206.28 249.8C206.44 249.053 206.627 248.307 206.84 247.56C207.053 246.76 207.213 245.987 207.32 245.24C207.427 244.493 207.4 243.8 207.24 243.16L207.4 242.68C207.507 242.573 207.32 241.747 206.84 240.2L208.12 237.4H208.2C209.267 237.347 210.36 237.293 211.48 237.24C212.6 237.187 213.613 237.133 214.52 237.08C215.48 237.027 216.253 237 216.84 237C217.48 236.947 217.827 236.92 217.88 236.92H228.92C229.293 236.92 229.773 237.107 230.36 237.48C231 237.8 233.133 237.96 236.76 237.96C236.813 238.173 236.867 238.387 236.92 238.6C236.973 238.813 237.027 239.027 237.08 239.24C237.24 240.2 237.427 240.947 237.64 241.48L237.16 242.28C236.36 242.333 235.747 242.36 235.32 242.36C234.893 242.36 234.573 242.36 234.36 242.36C234.2 242.307 234.093 242.28 234.04 242.28C233.987 242.227 233.933 242.2 233.88 242.2L227.64 241.4C226.093 241.08 224.173 241.267 221.88 241.96C220.867 242.227 220.04 242.307 219.4 242.2C218.76 242.04 218.333 242.013 218.12 242.12C217.48 241.907 216.947 241.907 216.52 242.12C216.093 242.333 215.96 242.733 216.12 243.32C216.28 243.853 216.467 244.173 216.68 244.28C216.893 244.387 217.053 244.6 217.16 244.92C217.053 245.08 217.08 245.32 217.24 245.64C217.453 245.907 217.693 246.173 217.96 246.44C218.28 246.76 218.6 246.973 218.92 247.08C219.24 247.133 219.4 247.187 219.4 247.24C219.4 247.347 219.267 247.907 219 248.92C218.733 249.88 218.52 251.053 218.36 252.44C218.2 253.827 218.147 255.32 218.2 256.92C218.307 258.52 218.707 260.013 219.4 261.4C219.133 261.987 218.893 263.107 218.68 264.76C218.467 266.36 218.28 268.013 218.12 269.72C218.013 271.427 217.933 272.973 217.88 274.36C217.827 275.693 217.8 276.413 217.8 276.52C217.747 276.52 217.667 276.627 217.56 276.84C217.507 277 217.427 277.187 217.32 277.4C217.213 277.613 217.08 277.8 216.92 277.96C216.76 278.067 216.573 278.067 216.36 277.96V278.68C216.36 278.68 216.52 278.68 216.84 278.68H217.16C217.107 278.947 217.08 279.32 217.08 279.8C217.08 280.28 217.053 280.68 217 281L223.08 280.2C224.147 280.307 225.373 280.333 226.76 280.28C228.2 280.227 229.8 280.04 231.56 279.72C233.32 279.453 234.76 279.373 235.88 279.48C237 279.587 237.827 279.4 238.36 278.92L240.36 278.84L241.88 280.52ZM278.225 275.64L274.625 273.48L273.265 270.52L268.065 265.16L267.505 263.96L264.545 260.12L264.065 258.68L263.905 259.24C263.852 259.453 263.825 259.933 263.825 260.68C263.878 261.427 263.745 261.96 263.425 262.28C263.265 262.493 263.078 262.92 262.865 263.56C262.652 264.147 262.518 264.547 262.465 264.76L262.225 267.56C262.278 267.667 262.332 267.747 262.385 267.8C262.492 267.853 262.572 267.987 262.625 268.2C262.678 268.413 262.705 268.76 262.705 269.24C262.705 269.667 262.625 270.307 262.465 271.16C262.145 272.813 262.012 274.093 262.065 275C262.172 275.853 262.225 276.333 262.225 276.44C262.225 276.653 262.252 277.08 262.305 277.72C262.412 278.307 262.358 279.133 262.145 280.2C261.878 282.227 261.825 283.853 261.985 285.08L261.105 285.56C260.892 285.507 260.572 285.48 260.145 285.48C259.718 285.48 259.238 285.507 258.705 285.56C258.225 285.56 257.718 285.587 257.185 285.64C256.652 285.64 256.198 285.64 255.825 285.64H254.785L251.425 286.44L249.345 285.32C249.345 284.467 249.452 283.507 249.665 282.44C249.825 281.373 249.958 280.44 250.065 279.64C250.172 278.84 250.225 278.227 250.225 277.8C250.225 277.693 250.172 277.453 250.065 277.08C249.958 276.653 249.878 276.36 249.825 276.2L250.385 264.12C250.545 264.12 250.652 263.933 250.705 263.56C250.758 263.187 250.785 262.787 250.785 262.36C250.785 261.933 250.758 261.533 250.705 261.16C250.652 260.733 250.598 260.467 250.545 260.36C250.492 260.307 250.518 260.093 250.625 259.72C250.785 259.347 250.972 258.947 251.185 258.52L251.745 257.32C251.852 257.107 251.932 256.973 251.985 256.92C252.092 256.813 252.172 256.733 252.225 256.68C252.332 256.36 252.358 256.093 252.305 255.88C252.252 255.667 252.172 255.427 252.065 255.16C252.012 254.893 251.958 254.52 251.905 254.04C251.852 253.56 251.878 252.867 251.985 251.96C252.198 250.147 252.358 248.653 252.465 247.48C252.625 246.253 252.705 245.48 252.705 245.16V243.32C252.598 242.84 252.545 242.387 252.545 241.96C252.598 241.48 252.385 241.107 251.905 240.84L251.985 239.8C252.198 239.32 253.025 239.08 254.465 239.08H258.705C259.025 239.08 259.425 238.92 259.905 238.6C260.438 238.28 261.025 238.093 261.665 238.04C261.932 237.933 262.252 237.8 262.625 237.64C262.998 237.427 263.265 237.32 263.425 237.32C263.638 237.32 263.905 237.373 264.225 237.48C264.598 237.587 264.972 237.8 265.345 238.12V239.8L269.665 248.36L270.945 255.08L273.665 259.48L276.225 265.08L277.425 265.4L280.065 263C280.172 262.733 280.278 262.44 280.385 262.12C280.545 261.8 280.732 261.507 280.945 261.24C281.265 260.707 281.638 260.12 282.065 259.48C282.545 258.84 283.105 258.147 283.745 257.4C286.305 254.627 287.425 252.733 287.105 251.72L290.545 246.12C291.452 246.493 292.198 246.413 292.785 245.88C293.425 245.293 293.878 243.987 294.145 241.96C294.145 241.853 294.118 241.693 294.065 241.48C294.012 241.213 293.932 240.973 293.825 240.76C294.518 240.44 294.918 240.12 295.025 239.8C295.132 239.48 295.185 239 295.185 238.36C295.825 238.093 296.385 237.933 296.865 237.88C297.398 237.773 297.958 237.64 298.545 237.48L303.985 240.76C303.932 241.24 303.878 241.747 303.825 242.28C303.772 242.813 303.692 243.373 303.585 243.96C303.478 244.707 303.372 245.507 303.265 246.36C303.158 247.16 303.052 247.96 302.945 248.76C302.892 249.507 302.812 250.2 302.705 250.84C302.652 251.48 302.598 251.987 302.545 252.36C302.438 252.893 302.332 253.827 302.225 255.16C302.118 256.44 301.985 258.2 301.825 260.44C301.665 264.867 302.225 267.427 303.505 268.12C303.505 268.493 303.478 269.32 303.425 270.6C303.425 271.88 303.398 273.72 303.345 276.12C303.292 277.293 303.265 278.333 303.265 279.24C303.265 280.147 303.265 280.947 303.265 281.64V284.12C301.825 284.493 300.305 284.84 298.705 285.16C297.158 285.48 295.932 285.64 295.025 285.64C294.652 285.64 294.278 285.507 293.905 285.24C293.532 284.973 293.292 284.547 293.185 283.96C293.558 283.64 293.745 283.48 293.745 283.48C293.798 283.48 293.692 283.347 293.425 283.08V273.64L293.985 272.36H293.425V268.68C293.425 268.093 293.398 267.293 293.345 266.28C293.292 265.267 293.212 263.987 293.105 262.44C292.945 260.893 292.838 259.72 292.785 258.92C292.732 258.067 292.705 257.587 292.705 257.48C292.705 257.32 292.838 256.973 293.105 256.44C293.425 255.853 293.718 255.373 293.985 255C294.092 254.733 294.118 254.467 294.065 254.2C294.065 253.88 294.092 253.613 294.145 253.4C294.145 253.187 294.252 253 294.465 252.84C294.732 252.627 294.918 252.467 295.025 252.36C294.918 252.04 294.785 251.693 294.625 251.32C294.518 250.947 294.465 250.707 294.465 250.6C291.905 249.427 291.132 250.307 292.145 253.24L290.305 257.24L284.785 265.4L279.825 274.92L278.225 275.64ZM315.889 234.2C316.316 234.093 316.796 233.987 317.329 233.88C317.863 233.72 318.423 233.56 319.009 233.4C320.076 233.187 320.823 233 321.249 232.84C321.676 232.627 322.156 232.493 322.689 232.44C323.276 232.333 323.756 232.28 324.129 232.28C324.556 232.227 325.143 232.2 325.889 232.2C325.943 232.413 326.023 232.653 326.129 232.92C326.289 233.133 326.369 233.373 326.369 233.64C326.956 234.92 327.516 235.64 328.049 235.8C328.583 235.96 329.063 235.88 329.489 235.56C329.916 235.24 330.263 234.84 330.529 234.36C330.849 233.88 331.063 233.64 331.169 233.64H337.729L344.769 238.52C345.196 238.787 345.649 239.133 346.129 239.56C346.609 239.987 347.143 240.493 347.729 241.08C348.849 242.253 349.596 242.813 349.969 242.76L349.489 246.6C349.489 246.653 349.569 246.707 349.729 246.76C349.889 246.813 350.049 246.973 350.209 247.24C350.423 247.453 350.583 247.8 350.689 248.28C350.849 248.76 350.876 249.453 350.769 250.36C350.609 252.227 350.609 253.88 350.769 255.32C350.929 256.76 351.009 257.933 351.009 258.84C351.009 258.893 350.449 259.187 349.329 259.72C348.209 260.147 347.649 260.947 347.649 262.12C347.383 262.067 346.663 262.093 345.489 262.2C344.369 262.253 343.223 262.547 342.049 263.08L338.609 264.44H333.729C332.716 264.44 331.836 264.573 331.089 264.84C330.343 265.053 329.729 265.293 329.249 265.56C328.769 265.827 328.396 266.093 328.129 266.36C327.863 266.573 327.276 266.68 326.369 266.68C326.476 267.267 326.583 267.667 326.689 267.88C326.529 268.36 326.289 268.973 325.969 269.72C325.703 270.413 325.569 270.893 325.569 271.16C325.569 271.48 325.569 271.933 325.569 272.52C325.623 273.107 325.676 273.853 325.729 274.76C325.783 275.72 325.569 276.52 325.089 277.16C324.609 277.747 324.369 278.227 324.369 278.6C324.529 279.293 324.663 280.067 324.769 280.92C324.929 281.72 325.089 282.52 325.249 283.32L324.049 285.64C323.943 285.693 323.836 285.72 323.729 285.72C323.676 285.72 323.596 285.747 323.489 285.8C322.316 286.173 321.409 286.36 320.769 286.36C320.663 286.36 320.449 286.36 320.129 286.36C319.863 286.307 319.543 286.253 319.169 286.2C318.796 286.147 318.449 286.12 318.129 286.12C317.809 286.067 317.596 286.04 317.489 286.04C317.383 286.04 317.143 286.173 316.769 286.44C316.449 286.707 316.076 286.947 315.649 287.16L313.729 286.36C313.623 285.507 313.569 284.547 313.569 283.48C313.623 282.413 313.596 281.507 313.489 280.76C313.649 280.547 313.863 280.12 314.129 279.48C314.396 278.787 314.476 277.853 314.369 276.68C314.263 275.453 314.289 274.467 314.449 273.72C314.609 272.973 314.689 272.387 314.689 271.96C314.689 271.8 314.609 271.373 314.449 270.68C314.343 269.933 314.316 269.347 314.369 268.92C314.423 268.76 314.556 268.547 314.769 268.28C314.983 268.013 315.089 267.667 315.089 267.24C315.036 265.533 315.009 264.173 315.009 263.16C315.009 262.147 314.903 261.107 314.689 260.04C314.636 259.827 314.663 259.613 314.769 259.4C314.929 259.133 315.009 258.787 315.009 258.36C315.009 257.933 315.169 256.947 315.489 255.4C315.863 253.8 315.889 251.587 315.569 248.76C315.303 245.987 315.089 243.827 314.929 242.28C314.769 240.733 314.716 239.8 314.769 239.48C314.876 238.893 314.903 238.44 314.849 238.12C314.796 237.8 314.769 237.32 314.769 236.68L315.889 234.2ZM337.729 259.24C337.729 258.973 338.263 258.307 339.329 257.24C340.449 256.227 341.009 255.533 341.009 255.16L339.969 247.88L339.329 245.4L332.449 237.72H329.409L327.809 237.4L327.169 237.72C327.063 238.04 327.009 239.88 327.009 243.24C327.063 246.76 327.063 248.76 327.009 249.24C325.943 249.827 325.623 251.027 326.049 252.84C326.529 254.6 326.503 255.987 325.969 257C325.809 257.16 325.729 257.4 325.729 257.72C325.729 258.467 325.729 259.027 325.729 259.4C325.783 259.72 325.756 260.227 325.649 260.92C325.649 260.973 325.676 261.133 325.729 261.4C325.836 261.667 325.916 262.067 325.969 262.6L329.089 261.72C329.089 262.253 330.129 261.987 332.209 260.92C333.276 260.333 334.103 259.907 334.689 259.64C335.276 259.373 335.623 259.24 335.729 259.24H337.729ZM393.916 245.08C393.383 245.08 392.77 245.08 392.076 245.08C391.383 245.027 390.583 244.973 389.676 244.92C388.13 244.867 386.716 244.84 385.436 244.84C384.156 244.787 383.303 244.707 382.876 244.6V250.68C382.13 251.267 381.596 252.44 381.276 254.2C380.85 259.48 380.583 263.72 380.476 266.92C380.37 270.067 380.343 272.52 380.396 274.28C380.45 275.347 380.503 276.253 380.556 277C380.61 277.693 380.69 278.253 380.796 278.68L381.676 282.92L381.276 283.56L371.596 285.72H371.356C371.25 285.72 371.116 285.747 370.956 285.8C370.85 285.8 370.743 285.8 370.636 285.8L367.996 283.96C367.996 283.907 368.023 283.88 368.076 283.88C368.13 283.827 368.183 283.747 368.236 283.64C368.29 283.48 368.343 283.24 368.396 282.92C368.45 282.547 368.476 282.04 368.476 281.4C368.476 280.867 368.476 280.493 368.476 280.28C368.53 280.067 368.503 279.72 368.396 279.24C368.29 278.6 368.29 277.16 368.396 274.92C368.45 272.68 368.076 271.56 367.276 271.56C367.383 270.973 367.436 270.28 367.436 269.48C367.49 268.68 367.543 267.933 367.596 267.24C367.65 266.813 367.676 266.413 367.676 266.04C367.676 265.613 367.676 265.187 367.676 264.76C367.73 264.707 367.756 264.653 367.756 264.6C367.81 264.547 367.863 264.493 367.916 264.44L367.996 264.36C368.263 263.933 368.396 263.613 368.396 263.4C368.396 263.133 368.503 262.547 368.716 261.64V258.2C369.73 258.36 369.943 257.507 369.356 255.64C368.876 253.613 368.796 252.6 369.116 252.6C369.276 251.907 369.436 251.107 369.596 250.2C369.703 249.453 369.81 248.653 369.916 247.8C370.023 246.893 370.13 245.987 370.236 245.08L369.916 244.84C369.543 245.16 369.09 245.267 368.556 245.16C368.076 245.053 367.623 244.973 367.196 244.92C365.97 245.08 364.93 245.213 364.076 245.32C363.223 245.427 362.53 245.613 361.996 245.88C361.676 245.987 361.383 246.067 361.116 246.12C360.85 246.173 360.716 246.547 360.716 247.24L356.156 248.2L354.716 247.16C354.503 246.627 354.316 246.12 354.156 245.64C353.996 245.107 353.89 244.467 353.836 243.72L354.796 241.4C355.543 241.293 356.13 241.24 356.556 241.24C357.036 241.24 357.383 241.267 357.596 241.32C357.863 241.32 358.05 241.347 358.156 241.4C358.263 241.453 358.37 241.48 358.476 241.48C359.063 241.213 359.676 240.973 360.316 240.76C360.956 240.493 361.703 240.253 362.556 240.04C363.463 239.827 364.503 239.64 365.676 239.48C366.903 239.267 368.37 239.053 370.076 238.84L377.356 238.52L378.156 239.16C378.423 239.32 378.716 239.48 379.036 239.64C379.356 239.747 379.676 239.8 379.996 239.8C380.37 239.853 380.716 239.72 381.036 239.4C381.143 239.293 381.25 239.133 381.356 238.92C381.783 238.813 382.476 238.813 383.436 238.92C384.45 238.973 385.97 239.16 387.996 239.48C391.516 240.067 393.836 240.387 394.956 240.44L395.436 241.24V243.88L393.916 245.08ZM440.673 235.4L444.113 236.76C444.113 237.56 444.086 238.28 444.033 238.92C443.98 239.507 443.873 240.067 443.713 240.6C443.606 241.027 443.313 241.747 442.833 242.76C442.406 243.72 442.06 244.973 441.793 246.52C441.74 246.893 441.553 247.293 441.233 247.72C440.913 248.147 440.54 248.573 440.113 249C439.74 249.427 439.34 249.88 438.913 250.36C438.486 250.787 438.14 251.213 437.873 251.64C436.86 253.773 435.98 255.507 435.233 256.84C434.486 258.173 433.953 259.267 433.633 260.12L433.153 261.32L432.753 263.56V266.12C432.753 266.387 432.753 266.68 432.753 267C432.753 267.32 432.78 267.667 432.833 268.04C432.833 268.787 432.753 269.64 432.593 270.6C432.486 271.507 432.326 272.44 432.113 273.4C431.953 274.307 431.793 275.16 431.633 275.96C431.526 276.707 431.473 277.32 431.473 277.8L432.433 282.52L431.633 284.76L422.913 286.76H422.353C422.14 286.76 421.873 286.787 421.553 286.84C421.286 286.84 420.966 286.84 420.593 286.84H419.633L417.073 284.52C417.393 284.2 417.553 283.427 417.553 282.2C417.553 281.667 417.58 281.293 417.633 281.08C417.74 280.867 417.686 280.493 417.473 279.96C417.42 279.64 417.446 279 417.553 278.04C417.66 277.08 417.846 275.773 418.113 274.12C418.22 273.267 418.273 272.413 418.273 271.56C418.326 270.653 418.353 269.853 418.353 269.16C418.353 268.413 418.3 267.827 418.193 267.4C418.14 266.92 418.033 266.68 417.873 266.68C417.766 266.573 417.66 266.44 417.553 266.28C417.5 266.12 417.42 265.96 417.313 265.8C417.153 265.533 416.94 265.187 416.673 264.76C416.406 264.333 416.113 263.827 415.793 263.24C415.206 262.227 414.726 261.533 414.353 261.16C414.033 260.787 413.713 260.52 413.393 260.36C413.126 260.147 412.806 259.96 412.433 259.8C412.06 259.587 411.553 259.16 410.913 258.52C410.326 256.227 409.313 254.067 407.873 252.04C406.486 250.013 404.966 248.067 403.313 246.2C402.193 244.973 401.366 243.907 400.833 243C400.353 242.093 399.74 241.347 398.993 240.76L398.673 237.16C399.153 236.84 399.686 236.627 400.273 236.52C400.54 236.467 400.94 236.36 401.473 236.2C402.06 235.987 402.646 235.773 403.233 235.56C403.873 235.293 404.433 235.027 404.913 234.76C405.393 234.493 405.686 234.227 405.793 233.96L408.513 234.04C408.993 234.467 409.393 234.84 409.713 235.16C410.086 235.48 410.406 235.827 410.673 236.2C411.58 237.32 412.673 238.12 413.953 238.6C413.953 239.453 414.113 240.227 414.433 240.92C414.806 241.56 415.126 242.12 415.393 242.6C415.766 243.08 416.166 243.427 416.593 243.64C417.073 243.8 417.473 244.36 417.793 245.32C417.793 245.427 417.74 245.64 417.633 245.96C417.526 246.28 417.366 246.627 417.153 247C416.993 247.32 416.806 247.64 416.593 247.96C416.433 248.227 416.273 248.36 416.113 248.36C415.953 248.36 415.953 248.413 416.113 248.52C416.326 248.627 416.62 248.76 416.993 248.92C417.42 249.08 417.873 249.293 418.353 249.56C418.886 249.773 419.393 250.04 419.873 250.36C419.873 250.467 419.82 250.6 419.713 250.76C419.66 250.867 419.66 251.027 419.713 251.24C419.82 251.453 420.006 251.72 420.273 252.04C420.593 252.36 421.153 252.787 421.953 253.32C422.7 253.907 423.1 254.387 423.153 254.76C423.206 255.08 423.153 255.4 422.993 255.72C422.833 255.987 422.726 256.28 422.673 256.6C422.62 256.92 422.833 257.32 423.313 257.8C423.633 258.12 424.086 258.307 424.673 258.36C425.26 258.36 425.82 258.307 426.353 258.2C426.94 258.04 427.446 257.827 427.873 257.56C428.353 257.293 428.62 257 428.673 256.68C428.886 255.987 429.073 255.347 429.233 254.76C429.446 254.12 429.66 253.587 429.873 253.16C430.566 252.573 431.02 252.067 431.233 251.64C431.5 251.213 431.766 250.627 432.033 249.88C432.353 249.187 432.593 248.547 432.753 247.96C432.966 247.373 433.126 247.053 433.233 247C433.606 245.933 434.086 244.813 434.673 243.64C435.313 242.413 435.82 241.133 436.193 239.8C436.46 238.893 436.7 238.067 436.913 237.32C437.18 236.573 437.366 235.96 437.473 235.48L440.673 235.4Z" fill="#348586"/>
</g>
</svg>
